<svg width="3544" height="421" viewBox="0 0 3544 421" fill="none" xmlns="http://www.w3.org/2000/svg">
<path d="M324.225 205.75C324.225 346.625 268.45 407 138.5 407H0.5V4.49996H138.5C268.45 4.49996 324.225 64.875 324.225 205.75ZM136.2 45.325H51.1V366.175H136.2C231.65 366.175 271.325 319.025 271.325 205.75C271.325 93.05 231.65 45.325 136.2 45.325Z" fill="black"/>
<path d="M454.552 407H407.977V119.5H454.552V407ZM430.977 0.474976C453.977 0.474976 463.752 10.25 463.752 32.675C463.752 54.525 453.977 64.3 430.977 64.3C408.552 64.3 398.777 54.525 398.777 32.675C398.777 10.25 408.552 0.474976 430.977 0.474976Z" fill="black"/>
<path d="M625.287 323.05C625.287 350.075 640.237 368.475 675.312 368.475H712.687V407H660.362C606.312 407 578.712 375.95 578.712 328.225V153.425H532.712V119.5H578.712V51.075H625.287V119.5H712.687V153.425H625.287V323.05Z" fill="black"/>
<path d="M827.296 407H781.296V4.49996H827.296V179.3C841.096 133.875 871.571 113.75 922.746 113.75C995.196 113.75 1026.25 155.15 1026.25 251.75V407H980.246V251.75C980.246 181.025 959.546 152.275 907.796 152.275C850.871 152.275 827.296 181.025 827.296 251.75V407Z" fill="black"/>
<path d="M1141.93 288.55C1147.11 350.65 1172.41 378.825 1229.33 378.825C1273.61 378.825 1295.46 363.3 1307.53 321.325H1351.23C1337.43 385.15 1300.63 412.75 1229.33 412.75C1135.61 412.75 1095.36 367.9 1095.36 263.25C1095.36 158.6 1135.03 113.75 1229.33 113.75C1322.48 113.75 1362.73 160.325 1362.73 269.575V288.55H1141.93ZM1316.73 257.5C1316.73 178.725 1290.28 147.675 1228.76 147.675C1167.81 147.675 1140.78 179.875 1140.78 257.5H1316.73Z" fill="black"/>
<path d="M1560.21 113.75H1587.23V157.45H1555.61C1499.83 157.45 1483.73 185.05 1483.73 263.25V407H1437.73V119.5H1475.11L1482.01 186.2C1491.21 137.9 1513.63 113.75 1560.21 113.75Z" fill="black"/>
<path d="M2710.43 44.8174H2936.44L2964.52 38.9214L2935.88 140.276H2924.93C2930.27 111.358 2929.99 91.1431 2924.09 79.6318C2918.19 68.1206 2901.91 62.5054 2875.52 62.5054H2846.6L2754.51 347.198C2748.61 365.167 2748.61 376.958 2753.95 382.293C2759.28 387.627 2772.48 391.839 2793.26 394.927L2790.17 407H2630.41L2633.78 394.366C2653.72 391.277 2668.04 387.066 2677.3 381.17C2686.29 375.274 2693.59 363.482 2699.48 345.513L2791.57 62.5054H2762.65C2735.98 62.5054 2715.2 68.9629 2700.89 82.1587C2686.57 95.3545 2672.81 115.85 2659.89 143.645H2647.82L2685.72 38.9214L2710.43 44.8174Z" fill="black"/>
<path d="M2948.24 412.615C2907.53 412.615 2881.7 390.997 2881.7 340.74C2881.7 294.415 2899.38 251.739 2935.04 212.713C2970.42 173.968 3008.88 154.595 3050.71 154.595C3091.42 154.595 3116.69 176.214 3116.69 225.909C3116.69 255.95 3108.55 285.43 3092.27 314.349C3075.98 343.548 3054.65 367.132 3028.53 385.381C3002.14 403.631 2975.47 412.615 2948.24 412.615ZM2966.77 395.489C2983.61 395.489 2999.9 385.101 3015.9 364.043C3031.9 343.267 3044.26 319.402 3053.24 292.449C3062.23 265.777 3066.72 241.912 3066.72 221.136C3066.72 190.533 3054.08 171.722 3031.62 171.722C3014.5 171.722 2997.93 182.11 2981.93 202.605C2965.92 223.101 2953.85 246.685 2945.15 272.796C2936.44 298.907 2932.23 322.491 2932.23 343.267C2932.23 373.309 2944.59 395.489 2966.77 395.489Z" fill="black"/>
<path d="M3200.36 412.615C3159.65 412.615 3133.82 390.997 3133.82 340.74C3133.82 294.415 3151.51 251.739 3187.16 212.713C3222.54 173.968 3261 154.595 3302.84 154.595C3343.55 154.595 3368.82 176.214 3368.82 225.909C3368.82 255.95 3360.68 285.43 3344.39 314.349C3328.11 343.548 3306.77 367.132 3280.66 385.381C3254.27 403.631 3227.59 412.615 3200.36 412.615ZM3218.89 395.489C3235.74 395.489 3252.02 385.101 3268.02 364.043C3284.03 343.267 3296.38 319.402 3305.37 292.449C3314.35 265.777 3318.84 241.912 3318.84 221.136C3318.84 190.533 3306.21 171.722 3283.75 171.722C3266.62 171.722 3250.06 182.11 3234.05 202.605C3218.05 223.101 3205.98 246.685 3197.27 272.796C3188.57 298.907 3184.36 322.491 3184.36 343.267C3184.36 373.309 3196.71 395.489 3218.89 395.489Z" fill="black"/>
<path d="M3543.73 34.4292L3436.2 344.952C3430.02 362.92 3430.02 371.062 3436.2 369.097C3444.9 366.57 3461.47 348.602 3485.61 315.472L3494.32 325.298C3457.82 383.416 3426.09 412.615 3398.86 412.615C3381.17 412.615 3370.78 399.981 3377.52 380.047L3477.75 91.9853C3482.81 77.105 3482.53 66.9975 3476.63 61.6631C3470.73 56.6094 3458.1 54.0825 3438.45 54.0825L3443.78 38.9214L3538.12 25.7256L3543.73 34.4292Z" fill="black"/>
<path d="M1484 407H2581V421H1484V407Z" fill="black"/>
</svg>
